<svg xmlns="http://www.w3.org/2000/svg" viewBox="0 0 950.87 422.49"><defs><style>.cls-1{fill:#3c3c3c;}.cls-2{fill:none;stroke:blue;stroke-linecap:round;stroke-linejoin:round;stroke-width:10px;}</style></defs><g id="base"><path class="cls-1" d="M15.1,114.24c7.26,11.87,14.6,25.94,8.69,41.76-1.6,3-2.77,5.28-3.4,6.55a8.2,8.2,0,0,0-.75,1.89,1.94,1.94,0,0,0,.57,1.57,2.64,2.64,0,0,0,3.68,0,13,13,0,0,0,1.13-1.7,43.89,43.89,0,0,0,3.3-6.78C36.65,141.73,56.37,105,73.26,72.87c22.54-.75,52.1-.62,90.59.43-22.53,41.83-49,91.67-56.49,115.22-1.77,5.55-2.46,9.76-2,12.22a4.84,4.84,0,0,0,2,3.3,4.79,4.79,0,0,0,2.87.81,2.16,2.16,0,1,0,.11-4.3,6.3,6.3,0,0,1-.25-1.45c0-2.19.7-5.39,2-9.41,7.55-23.74,34.48-74.28,57.1-116.24q16.74.48,35.71,1.2a2.34,2.34,0,0,0,2.52-2.06A2.28,2.28,0,0,0,205,70.34q-17.79-.66-33.63-1.12c9-16.76,17.24-31.92,23-43.1,5.32-10.3,8.59-17.38,8.83-19.49a2.56,2.56,0,0,0-.88-2.39,2.78,2.78,0,0,0-2.81-.45,2.09,2.09,0,0,0-1.4,2.78l.06.12c-.81,2-4,9.39-8.2,17.63-6,11.56-14.52,27.33-23.91,44.74-38.17-1-67.79-1.19-90.61-.5,11.37-21.67,21.1-40.62,24.62-48.63a24.13,24.13,0,0,0,1.52-4.09,2.65,2.65,0,0,0,0-1.2,2.26,2.26,0,0,0-1.31-1.47,2.59,2.59,0,0,0-3.26.95,2,2,0,0,0-.25,1.2c-.15.45-.62,1.77-1.18,3-3.62,8.23-13.79,28-25.55,50.38-26.62,1-43.23,3.28-53,6.64-7.07,2.43-10.88,5.51-12.59,9s-1.38,7.52.39,12C7,101.59,11,107.59,15.1,114.24ZM201.16,7.86h-.07Zm-.11,0-.09,0-.12,0h-.11A1.92,1.92,0,0,0,201.05,7.89ZM98,17h0l0,0Zm-.12-.07,0,0h0Zm-.15-.09,0,0,0,0Zm-.15-.11h0ZM8.9,86.07c1.32-2.65,4.45-4.8,9.9-6.67,9.26-3.18,24.68-5.32,49-6.33-13,24.63-27.42,51.67-37,69.76-.43-11.29-5.86-21.57-11.42-30.65-3.93-6.42-7.9-12.2-9.92-17.29C8.12,91.6,7.61,88.65,8.9,86.07Z"/><path class="cls-1" d="M472.92,130.15c-16.56,11.82-29.53,17.55-39.51,19.34s-16.53-.51-20.66-4.39A41,41,0,0,0,419,130.83c1.37-7.2-1.4-11.86-7.62-11.15a8.74,8.74,0,0,0-6.22,3.78,16.68,16.68,0,0,0-2.49,11,21.85,21.85,0,0,0,4.16,10.95,34.78,34.78,0,0,1-7.13,7c-4.54,3.24-9.79,4.8-15.14,2.43s-6.79-7.71-5.57-13.15c2-8.82,10.71-18.25,22.5-18.71a2.26,2.26,0,0,0,2.31-2.24,2.33,2.33,0,0,0-2.52-2.06,29.31,29.31,0,0,0-21.56,11.17,2.64,2.64,0,0,0-.37.2c-23.11,15.15-39.17,22.88-49.92,25.17-6.17,1.31-10.33.83-12.84-1.44-1.87-1.69-2.74-4.28-3-7.46a42.11,42.11,0,0,1,1.45-12.72c.36-1.48.78-3,1.25-4.55.51-.55,1-1.1,1.48-1.65h0l0,0h0C338.45,101.71,360.55,67.2,364,53.51c.64-2.55.64-4.52.16-5.78A4.08,4.08,0,0,0,361,45.08a3.36,3.36,0,0,0-2.15.3,10.12,10.12,0,0,0-2.5,2c-4.41,4.5-13.78,17.86-23,33.84-8.52,14.7-16.93,31.6-21.37,45.81-9.38,9.89-22.62,18.44-34.4,23.66-8.13,3.6-15.51,5.67-20.32,5.28a10.69,10.69,0,0,1-6-2.12c-2.32-1.9-3.31-4.92-3.49-8.66a42.85,42.85,0,0,1,1.54-12.25c25.86-31.68,44-66.65,47.32-79.87.73-2.89.7-4.95.25-6a3.2,3.2,0,0,0-2.55-2,3,3,0,0,0-2.32.58,27,27,0,0,0-4,4.45c-8.38,10.88-28,41-38.34,66.68A120.64,120.64,0,0,0,245,130.05c-11.78,7.52-27.43,16.91-41.83,22.1-9.09,3.29-17.63,4.95-24.19,3-5.38-1.59-8.85-4.1-10.76-7.12a12.06,12.06,0,0,1-1.39-3.07c12.58-3.45,20.32-7.81,24.4-11.82,3.39-3.32,4.42-6.54,3.95-9.06-.8-4.32-6.17-7.45-14.55-5.92-6.76,1.24-13.21,6.61-16.61,13.26-3.08,6-3.64,13,0,18.72,2.41,3.8,6.67,7.09,13.44,9.1,7.47,2.2,17.22.62,27.56-3.11,13.06-4.71,27.15-12.77,38.57-19.91-1,5.27-1.09,9.92-.12,13.61,1.57,6,5.7,9.78,13.27,10.39,5.42.44,13.79-1.66,22.94-5.71a122.67,122.67,0,0,0,30-19.07c-.32,1.6-.57,3.13-.74,4.61-.87,7.48.42,13.36,4.16,16.75,3.42,3.1,9,4.39,17.43,2.6,10-2.11,24.4-8.67,44.48-21.28a21.65,21.65,0,0,0-.8,2.73c-1.68,7.46.7,14.53,8.16,17.84,7.16,3.17,14.26,1.42,20.33-2.92a38.31,38.31,0,0,0,7.29-7,23.28,23.28,0,0,0,11.2,5.11c11.36,2,29.1-2.13,54.73-20.43a2,2,0,0,0,.37-3A2.62,2.62,0,0,0,472.92,130.15Zm-135.31-47A275.53,275.53,0,0,1,356.77,54c1.12-1.42,2.09-2.59,2.89-3.44v0a29,29,0,0,1-2.39,7.71c-5.8,13.64-20.62,36.79-35.92,57A290.61,290.61,0,0,1,337.61,83.17Zm-83.45,35.06C264.22,93.35,283.09,64.16,291.55,53c-3.41,12.06-17.63,39.64-38.06,66.87C253.71,119.35,253.93,118.79,254.16,118.23Zm-85.68,15c2.73-5.34,7.74-9.83,13.16-10.82,5.85-1.07,9.83.65,8.6,4.2-.59,1.7-2.14,3.57-4.72,5.51-3.94,3-10.16,6-19.13,8.5A18.36,18.36,0,0,1,168.48,133.21Zm241.22,8c-.25-.45-.48-.91-.69-1.37-2-4.43-2-9.34-.54-12.69.76-1.69,1.87-3,3.52-3.19a1.76,1.76,0,0,1,2.3,1.52,10.57,10.57,0,0,1-.07,4.64A35.11,35.11,0,0,1,409.7,141.2Z"/><path class="cls-1" d="M483.92,167.32a8.92,8.92,0,0,0,6.05-1.86,13.29,13.29,0,0,0,4.53-6.84,9.43,9.43,0,0,0,.18-4.88,4.71,4.71,0,0,0-2.09-2.84,4.6,4.6,0,0,0-5.29.7,5.2,5.2,0,0,0-1.57,6.21,6,6,0,0,0,2.78,2.56,8.33,8.33,0,0,1-1,1.26,4.17,4.17,0,0,1-3.19,1.4,2.33,2.33,0,0,0-2.6,2A2.26,2.26,0,0,0,483.92,167.32Z"/><path class="cls-1" d="M116.09,267.14a2.63,2.63,0,0,0-3,.56,30.23,30.23,0,0,0-2.48,3.2,11.57,11.57,0,0,1-3.08,1.19c-5,1.27-12.1,1.05-19.12.93-7.61-.13-15.13-.13-20.21,1.51-4.15,1.34-6.86,3.69-7.47,7.48a2.21,2.21,0,0,0,2.05,2.44,2.4,2.4,0,0,0,2.75-1.83c.45-2.78,3.12-3.95,6.62-4.62,4.49-.86,10.3-.78,16.17-.68,6.76.12,13.58.25,18.79-.71-4.51,8-9.84,19.58-15.67,32.72-12.8,28.84-28.2,65.24-43.21,86.69-4.82,6.88-9.54,12.19-14.16,15.07-2.61,1.63-5.12,2.45-7.59,2.07s-4.89-2-7.22-4.88c-4.07-5-7.79-13.56-11.15-26.41a2.45,2.45,0,0,0-2.91-1.61,2.17,2.17,0,0,0-1.82,2.59C7,396.47,11,405.49,15.33,410.8c3.27,4,6.78,6.05,10.32,6.6s7.39-.4,11.21-2.78c5-3.14,10.25-8.85,15.49-16.33C67.48,376.67,83.05,340,96,310.91c7.11-16,13.36-29.69,18.28-37.06a8.16,8.16,0,0,0,3.08-4.22A2.07,2.07,0,0,0,116.09,267.14Z"/><path class="cls-1" d="M155.58,279.67a15.71,15.71,0,0,0-.32-8.11,6.32,6.32,0,0,0-3.55-3.94,2.55,2.55,0,0,0-3.18,1.14,2.06,2.06,0,0,0,1.27,2.82c.46.18.63.71.84,1.29a11.62,11.62,0,0,1,.17,6,10.77,10.77,0,0,1-2.08,4.71,3.47,3.47,0,0,1-2.88,1.42,2.35,2.35,0,0,0-2.57,2,2.26,2.26,0,0,0,2.26,2.29,8.16,8.16,0,0,0,6-2.08A13.86,13.86,0,0,0,155.58,279.67Z"/><path class="cls-1" d="M274.16,387.37c-15.12,11.19-26.66,18.18-35.44,22a41.14,41.14,0,0,1-12.3,3.68,10.34,10.34,0,0,1-6.48-1.09c-3.15-1.94-4.06-5.91-4.24-10.38-.29-7.71,2-17,3.19-22.56a2.94,2.94,0,0,0-.78-3,2.68,2.68,0,0,0-2.81-.39,4.51,4.51,0,0,0-1.39.92,30,30,0,0,0-2.54,3c-3.8,4.9-10.38,14.41-16.34,20-2.12,2-4,3.5-5.72,3.72-.86.11-1.3-.57-1.78-1.73-1.48-3.57-1.76-10.59-.44-22.6a2.17,2.17,0,0,0-1.63-2.25,2.6,2.6,0,0,0-2.84.89c-8.16,11.54-18.42,24.8-24.88,31.68l-.35.37c2.28-5.14,7-13.9,14.93-27.48a2,2,0,0,0-1-2.9,2.58,2.58,0,0,0-3.27.91c-12,20.52-16.72,30.59-17.12,33.81a3.08,3.08,0,0,0,.89,2.82,3,3,0,0,0,1.93.74,4.21,4.21,0,0,0,1.95-.47,14.61,14.61,0,0,0,3.14-2.38c5.05-4.7,14.32-16.22,22.74-27.65-.33,6.57,0,11.16.82,14.19,1,3.72,2.89,5.48,4.86,6.09,2.22.7,5.05,0,8-2.07,5.15-3.6,11.32-11.51,16-17.8l1.3-1.74c-1.11,5.66-2.12,12.29-1.61,17.89.59,6.41,3.25,11.47,9,13.26,3.64,1.13,8.74.95,15.71-1.46,9.5-3.3,22.91-10.84,41.58-24.65a2,2,0,0,0,.31-3A2.63,2.63,0,0,0,274.16,387.37Z"/><path class="cls-1" d="M426.6,270.12c-20.52-5.21-44.63-6.14-64.35-.41-20.17,5.86-35.81,18.58-38.84,40.62-1.7,12.38,5,31.07,9.76,50.77,3.84,15.88,6.42,32.45,1.57,46.73-1.77,3.51-3.08,6.15-3.8,7.66a8.27,8.27,0,0,0-.8,2.26,2.06,2.06,0,0,0,1.67,2.08,2.52,2.52,0,0,0,2.34-.41,7,7,0,0,0,1.21-1.62,44.23,44.23,0,0,0,3.87-8.33l.64-1.27c5.18-10.25,13.7-26.88,22.71-44.67,14.84,7.16,36.46,23.19,55.31,35.81,9.74,6.53,18.76,12.15,25.77,15.26a28.14,28.14,0,0,0,9.7,2.77c3.46.14,5.88-1.06,7.15-3.68a2.07,2.07,0,0,0-1.26-2.83,2.55,2.55,0,0,0-3.19,1.13,2.25,2.25,0,0,1-2.28,1.09,14.72,14.72,0,0,1-4.29-.89c-7.13-2.36-17.39-8.72-28.69-16.29-19.15-12.82-41.18-29.09-56.23-36.3l.65-1.29c41-7.88,68-17,84.46-26.39,13.09-7.43,19.69-15.09,21.62-22.31,1.87-7-.53-13.77-6.08-19.78C457.41,281.37,443.19,274.34,426.6,270.12Zm40,38.49c-1.72,6.44-7.85,13.07-19.51,19.68-15.7,8.91-41.16,17.57-79.38,25.13,10.63-21.09,21.21-42.44,27.18-55.7,3.16-7,5-11.92,5.09-13.5a2.46,2.46,0,0,0-2.37-2.78,3.07,3.07,0,0,0-1.82.39,7.29,7.29,0,0,0-1.72,1.5,2,2,0,0,0,.39,3h0c-.41,1.16-1,2.61-1.7,4.31-5.31,12.64-18.22,38.71-30.95,63.9q-3.71.7-7.58,1.39a14.7,14.7,0,0,0-3.06-.26,7.93,7.93,0,0,0-5.75,2.25,2,2,0,0,0-.26,2.48,2.54,2.54,0,0,0,2.55,1q3.3-.56,6.49-1.12a30.27,30.27,0,0,1,4,1.28l-.89,1.76q-3.61,7.14-7.24,14.26l-8,15.66c.44-10.76-1.54-22.09-4.21-33.1-4.63-19.16-11.34-37.31-9.69-49.35,2.77-20.13,17.12-31.7,35.53-37.05,18.86-5.48,41.9-4.53,61.52.46,15.51,3.94,28.9,10.39,36.2,18.3C466,297.45,468.11,302.9,466.58,308.61Z"/><path class="cls-1" d="M827.41,387.29c-22,15.42-36.22,22.82-45.43,25.1-5.09,1.25-8.34.92-10.34-.81a8.48,8.48,0,0,1-2.46-4.73c-.77-3.39-.58-7.53-.24-11.54.46-5.46,1.18-10.69.66-13.87-.43-2.56-1.74-4.09-3.53-4.62-1.51-.45-3.84-.21-7,1.67-5.34,3.15-14.51,11.38-29.87,27.54q2.8-8.41,5.55-16.06c25.79-31.63,41-66.18,44.48-79.47.84-3.21.91-5.41.58-6.33a2.75,2.75,0,0,0-1.52-1.65,4,4,0,0,0-2.91-.08,13.11,13.11,0,0,0-4.82,3.65c-7.72,8.31-22.73,33.69-39.84,81a2.64,2.64,0,0,0-.37.2c-27.42,18.37-53.51,25.85-65.89,25.86-6.75,0-10.91-1.36-13-3.82-1.87-2.17-2-5.09-1.17-8.18,1.4-5.33,5.61-11.14,10.47-15.41a25.42,25.42,0,0,1,9.64-5.71,6.55,6.55,0,0,1,4.43.08c1.43.65,2.44,2.08,3.11,4.3a2.46,2.46,0,0,0,3,1.53,2.14,2.14,0,0,0,1.72-2.63c-1.11-3.74-3.16-5.93-5.57-7a11.85,11.85,0,0,0-8-.38,30.72,30.72,0,0,0-11.67,6.78,45,45,0,0,0-4.44,4.51,2.22,2.22,0,0,0-.46.29c-15.91,12.83-27.71,20.16-36.27,23.54-5.1,2-8.88,2.61-11.61,1.93-3.66-.9-4.79-4.26-4.77-8.44,0-7.64,4.26-18,9.89-25.8a2,2,0,0,0-.72-3,2.63,2.63,0,0,0-3.35.63c-16,21.7-27.62,32.15-35.44,35.63-3,1.31-5.15,1.6-6.67.73s-2.1-2.66-2.25-4.83c-.33-4.9,2-11.61,6.66-17.17l0,0a2.23,2.23,0,0,0,.85-1c5.9-6.41,15.13-10.94,27.28-8.63a2.44,2.44,0,0,0,2.88-1.65,2.18,2.18,0,0,0-1.86-2.56c-14.56-2.76-25.55,2.85-32.43,10.61-11.72,7.48-27.18,16.71-41.41,21.85-9.1,3.28-17.63,4.95-24.2,3-5.37-1.59-8.84-4.11-10.75-7.12a11.93,11.93,0,0,1-1.39-3.08c12.58-3.44,20.31-7.81,24.4-11.81,3.38-3.32,4.41-6.55,4-9.07-.81-4.32-6.17-7.45-14.56-5.91C493.9,376.57,487.44,382,484,388.6c-3.07,6-3.64,13,0,18.72,2.41,3.8,6.68,7.09,13.45,9.09,7.46,2.21,17.21.63,27.55-3.1,11.31-4.08,23.38-10.68,33.84-17a31.08,31.08,0,0,0-1.75,4.87c-1.56,5.94-.7,11.23,2.11,14s7.39,3.52,14.13.18c5.73-2.84,13.36-9,22.95-19.93a34.78,34.78,0,0,0-1.42,9.08c0,6.47,2.65,11.21,8.32,12.61,3.48.86,8.37.42,14.88-2.15,7.07-2.79,16.31-8.16,28.12-17-.27.73-.51,1.46-.7,2.18-1.18,4.47-.67,8.64,2,11.78s8,5.51,16.88,5.5c12.17,0,37.11-6.72,63.86-23.52-2,5.81-5.09,14.83-7,20.81a2.06,2.06,0,0,0,1.21,2.49,2.64,2.64,0,0,0,3-.54c19.4-20.89,30.24-31.06,36.23-34.59a11.33,11.33,0,0,1,2-1,4.54,4.54,0,0,1,.67-.16,6.11,6.11,0,0,1,.37,1.14c.49,3-.26,7.83-.7,12.91-.37,4.42-.52,9,.32,12.72a12.66,12.66,0,0,0,3.83,7c2.93,2.53,7.59,3.71,15,1.87,9.55-2.35,24.39-9.89,47.15-25.86a2,2,0,0,0,.4-3A2.63,2.63,0,0,0,827.41,387.29Zm-56.82-73.9a45.24,45.24,0,0,1,4.15-5.07c-.08.4-.17.81-.27,1.21-2.93,11.32-14.63,38.31-34.21,65.53C752.56,343.25,763.37,323.37,770.59,313.39Zm-282.13,77c2.73-5.35,7.74-9.83,13.16-10.83,5.85-1.06,9.84.66,8.61,4.2-.59,1.71-2.15,3.58-4.72,5.51-3.95,3-10.17,6-19.14,8.5A18.47,18.47,0,0,1,488.46,390.38Z"/><path class="cls-1" d="M945.87,296.27a2.58,2.58,0,0,0-3.27.9s-37.67,63.92-47.2,87.73a34,34,0,0,0-2.23,7.2,5.35,5.35,0,0,0,.14,2.4,2.94,2.94,0,0,0,1.79,1.81,3.76,3.76,0,0,0,2.56,0,2.1,2.1,0,0,0,1.47-2.75,2.26,2.26,0,0,0-1.11-1.15,2.63,2.63,0,0,1,.06-.39,37.09,37.09,0,0,1,1.89-5.69c9.47-23.65,46.92-87.17,46.92-87.17A2,2,0,0,0,945.87,296.27Z"/><path class="cls-1" d="M891.14,405.33a16.91,16.91,0,0,0-5.77,2.81,2,2,0,0,0-.48,3,2.63,2.63,0,0,0,3.4.42,24.13,24.13,0,0,1,2.27-1.31,12.73,12.73,0,0,1-1.12,2,2.33,2.33,0,0,0-2.28,1.92c-.32,2.66,1.62,3.21,2.54,3.24a3,3,0,0,0,1.52-.34,6.78,6.78,0,0,0,2.07-2,15,15,0,0,0,2.49-5.74,3.69,3.69,0,0,0-.92-3.11A3.93,3.93,0,0,0,891.14,405.33Z"/></g></svg>