<?xml version="1.0" encoding="UTF-8"?><svg id="_-2" xmlns="http://www.w3.org/2000/svg" viewBox="0 0 329.08 186.24"><defs><style>.cls-1{fill:#65bfa3;}.cls-2{fill:#cbdf7f;}</style></defs><path class="cls-1" d="M52.71,125.73c-.76-.44-1.78-.94-3.04-1.52-1.26-.57-2.61-1.14-4.03-1.71-1.42-.57-2.79-1.1-4.1-1.58-1.32-.48-2.42-.84-3.32-1.08-.62-.18-1.08-.51-1.38-1.01-.29-.5-.34-1.02-.13-1.58,.17-.53,.56-.92,1.17-1.19,.61-.26,1.22-.31,1.84-.13,1.07,.32,2.33,.75,3.77,1.3,1.44,.54,2.91,1.12,4.42,1.73,1.51,.62,2.92,1.22,4.23,1.8,1.32,.59,2.39,1.1,3.22,1.54,.55,.29,.9,.72,1.04,1.27,.14,.56,.02,1.07-.36,1.54-.35,.47-.84,.76-1.48,.88-.64,.12-1.26,.03-1.84-.26Zm4.57,14.8c-1.63-1.11-3.54-2.26-5.74-3.45-2.2-1.19-4.46-2.31-6.78-3.36-2.32-1.05-4.49-1.95-6.49-2.68-.59-.23-1-.62-1.22-1.14-.23-.53-.22-1.05,.03-1.58,.28-.5,.73-.85,1.35-1.05,.62-.2,1.25-.19,1.87,.04,2.15,.82,4.44,1.8,6.88,2.94,2.44,1.14,4.81,2.33,7.12,3.56,2.3,1.23,4.3,2.4,6,3.51,.52,.35,.81,.81,.88,1.38,.07,.57-.1,1.08-.52,1.52-.42,.41-.95,.65-1.61,.72-.66,.07-1.25-.07-1.77-.42Zm-1.3-24.33c-.8-.5-1.81-1.04-3.04-1.62-1.23-.59-2.53-1.18-3.9-1.78-1.37-.6-2.69-1.15-3.97-1.65-1.28-.5-2.39-.89-3.32-1.19-.62-.2-1.07-.56-1.35-1.05-.28-.5-.29-1.01-.05-1.54,.24-.53,.66-.91,1.25-1.16,.59-.25,1.19-.26,1.82-.02,1,.32,2.22,.77,3.64,1.34,1.42,.57,2.88,1.19,4.39,1.84,1.51,.66,2.91,1.3,4.21,1.93,1.3,.63,2.33,1.16,3.09,1.6,.55,.32,.88,.76,.99,1.32,.1,.56-.03,1.07-.42,1.54-.38,.44-.89,.7-1.53,.79-.64,.09-1.24-.03-1.79-.35Z"/><path class="cls-1" d="M79.9,140.52c-.66,.17-1.28,.12-1.87-.12-.59-.25-.99-.62-1.19-1.11-.21-.49-.16-.97,.16-1.44s.78-.78,1.4-.95c4.36-1.12,8.19-2.72,11.48-4.78,3.29-2.06,5.73-4.38,7.33-6.96,.83-1.37,1-2.39,.52-3.05-.49-.66-1.73-.99-3.74-.99h-18.65c-.8-.33-1.39-.63-1.79-.91-.4-.27-.6-.59-.6-.95,0-.52,.23-.96,.7-1.32,.47-.36,1.03-.54,1.69-.54h18.65c4.23,0,6.95,.86,8.18,2.59,1.23,1.73,1,3.99-.7,6.79-1.87,3.07-4.68,5.81-8.44,8.19-3.76,2.39-8.13,4.23-13.12,5.52Zm-1.25-26.88c-.66,0-1.22-.18-1.69-.54-.47-.36-.7-.8-.7-1.32s.23-.96,.7-1.32c.47-.36,1.03-.54,1.69-.54h19.33c.66,0,1.22,.18,1.69,.54,.47,.36,.7,.8,.7,1.32s-.23,.96-.7,1.32c-.47,.36-1.03,.54-1.69,.54h-19.33Z"/><path class="cls-1" d="M132.6,139.89c-.66,0-1.22-.19-1.69-.56-.47-.37-.7-.82-.7-1.34v-17.79c-2.32,1.7-4.78,3.34-7.38,4.92-2.6,1.58-5.18,2.98-7.74,4.22-.55,.27-1.15,.34-1.79,.21-.64-.14-1.15-.43-1.53-.86-.35-.47-.43-.95-.26-1.46,.17-.51,.54-.9,1.09-1.17,3.39-1.62,6.65-3.4,9.77-5.35,3.12-1.95,5.99-4.01,8.62-6.18,2.63-2.17,4.88-4.34,6.75-6.5,.38-.44,.89-.71,1.53-.8,.64-.1,1.24,0,1.79,.31,.55,.3,.89,.71,1.01,1.24,.12,.52,0,1-.39,1.44-.9,1.02-1.91,2.05-3.04,3.11-1.13,1.06-2.33,2.12-3.61,3.19v21.49c0,.52-.23,.97-.7,1.34-.47,.37-1.05,.56-1.74,.56Z"/><path class="cls-1" d="M153,135.6c-.66,0-1.22-.24-1.69-.71s-.7-1.04-.7-1.7c0-.7,.23-1.28,.7-1.76s1.03-.71,1.69-.71h35.22c.69,0,1.26,.24,1.71,.71s.68,1.06,.68,1.76-.23,1.23-.68,1.7-1.02,.71-1.71,.71h-35.22Zm6.23-18.77c-.66,0-1.22-.24-1.69-.73-.47-.49-.7-1.07-.7-1.73s.23-1.23,.7-1.7c.47-.47,1.03-.71,1.69-.71h22.81c.66,0,1.22,.24,1.69,.71,.47,.47,.7,1.04,.7,1.7s-.23,1.24-.7,1.73c-.47,.49-1.03,.73-1.69,.73h-22.81Z"/><path class="cls-1" d="M222.81,143.21c-.6,0-1.12-.18-1.55-.52-.43-.35-.64-.79-.64-1.33v-7.39c-1.52,.97-3.21,1.93-5.05,2.89-1.84,.96-3.75,1.84-5.71,2.66-1.97,.82-3.91,1.54-5.81,2.16-.63,.21-1.24,.26-1.81,.14-.57-.12-.98-.44-1.24-.95-.29-.48-.28-.95,.02-1.39,.3-.44,.75-.76,1.36-.95,2.7-.78,5.36-1.74,8-2.89,2.63-1.14,4.98-2.29,7.05-3.45h-16.28c-.51,0-.94-.15-1.29-.44-.35-.3-.52-.66-.52-1.09s.17-.79,.52-1.09c.35-.3,.78-.44,1.29-.44h19.48v-1.74c-2.51-.08-4.26-.54-5.26-1.37-1-.83-1.5-2.22-1.5-4.16v-2.62c0-1.75,.4-3.05,1.21-3.89,.81-.85,2.21-1.37,4.21-1.55,.19-.43,.41-.91,.67-1.45,.25-.54,.44-.97,.57-1.29,.16-.4,.52-.7,1.07-.89,.55-.19,1.12-.19,1.69,0,.54,.16,.91,.46,1.12,.91,.21,.44,.2,.87-.02,1.27-.09,.19-.21,.4-.33,.63-.13,.23-.27,.46-.43,.71h.57c2.86,0,4.85,.41,5.98,1.23,1.13,.82,1.69,2.27,1.69,4.34v2.62c0,1.96-.5,3.36-1.5,4.2-1,.83-2.77,1.28-5.31,1.33v1.74h19.71c.51,0,.94,.15,1.29,.44,.35,.3,.52,.66,.52,1.09s-.17,.79-.52,1.09c-.35,.3-.78,.44-1.29,.44h-16.62c1.4,.75,2.94,1.53,4.64,2.32,1.7,.79,3.47,1.55,5.31,2.26,1.84,.71,3.65,1.33,5.43,1.84,.57,.16,.98,.46,1.21,.91,.24,.44,.23,.91-.02,1.39s-.67,.79-1.24,.93c-.57,.13-1.16,.11-1.76-.08-1.84-.62-3.76-1.35-5.76-2.18-2-.83-3.94-1.74-5.81-2.7-1.87-.97-3.57-1.94-5.09-2.91v7.39c0,.54-.21,.98-.64,1.33-.43,.35-.96,.52-1.59,.52Zm-7.67-30.03c-.6,0-1.12-.17-1.55-.52-.43-.35-.64-.81-.64-1.37v-1.49h-11c-.51,0-.95-.15-1.31-.46-.37-.31-.55-.68-.55-1.11s.18-.8,.55-1.11c.36-.31,.8-.46,1.31-.46h11v-1.94c0-.56,.21-1.02,.64-1.35,.43-.34,.94-.5,1.55-.5,.63,0,1.16,.17,1.57,.5,.41,.34,.62,.79,.62,1.35v1.94h10.9v-1.94c0-.54,.21-.98,.64-1.33,.43-.35,.94-.53,1.55-.53,.63,0,1.16,.18,1.57,.53,.41,.35,.62,.79,.62,1.33v1.94h10.95c.51,0,.94,.16,1.29,.46,.35,.31,.52,.68,.52,1.11s-.17,.8-.52,1.11c-.35,.31-.78,.46-1.29,.46h-10.95v1.49c0,.56-.21,1.02-.62,1.37-.41,.35-.94,.52-1.57,.52s-1.12-.17-1.55-.52c-.43-.35-.64-.81-.64-1.37v-1.49h-10.9v1.49c0,.56-.21,1.02-.62,1.37-.41,.35-.94,.52-1.57,.52Zm-11.43,14.09c-.64,.27-1.26,.32-1.88,.16-.62-.16-1.06-.48-1.31-.97-.22-.48-.23-.95-.02-1.39,.21-.44,.61-.77,1.21-.99,.7-.27,1.53-.59,2.5-.97,.97-.38,1.94-.75,2.9-1.13,.97-.38,1.8-.71,2.5-1.01,.6-.27,1.16-.34,1.67-.22,.51,.12,.87,.4,1.09,.83,.25,.46,.3,.9,.14,1.33-.16,.43-.54,.79-1.14,1.09-.64,.3-1.41,.65-2.33,1.05-.92,.4-1.86,.8-2.81,1.19s-1.79,.73-2.52,1.03Zm4.76-8.6c-.51-.35-1.11-.75-1.81-1.19-.7-.44-1.39-.87-2.07-1.29-.68-.42-1.28-.76-1.79-1.03-.48-.24-.75-.61-.83-1.09-.08-.48,.04-.91,.36-1.29,.35-.4,.8-.65,1.36-.75s1.09,0,1.6,.26c.54,.27,1.17,.62,1.9,1.05,.73,.43,1.45,.86,2.17,1.29,.71,.43,1.33,.82,1.83,1.17,.51,.35,.79,.78,.83,1.29,.05,.51-.12,.96-.5,1.33-.38,.4-.86,.63-1.43,.69-.57,.05-1.11-.09-1.62-.44Zm9.57,.32h9.67c-.03-.99-.29-1.65-.78-1.98-.49-.32-1.41-.48-2.74-.48h-2.62c-1.37,0-2.29,.16-2.76,.48-.48,.32-.73,.98-.76,1.98Zm3.52,5.57h2.62c1.36,0,2.29-.17,2.76-.5,.48-.34,.73-1.03,.76-2.08h-9.67c.03,1.05,.29,1.74,.76,2.08,.48,.34,1.4,.5,2.76,.5Zm20.05,2.46c-.57-.32-1.27-.67-2.09-1.05-.83-.38-1.66-.76-2.5-1.15-.84-.39-1.58-.73-2.21-1.03-.48-.21-.8-.54-.98-.97-.17-.43-.14-.85,.12-1.25,.29-.46,.69-.76,1.21-.91s1.04-.11,1.55,.1c.76,.3,1.59,.64,2.48,1.03s1.75,.78,2.6,1.17c.84,.39,1.53,.73,2.07,1.03,.54,.27,.88,.64,1.02,1.11,.14,.47,.06,.92-.26,1.35-.32,.43-.77,.7-1.36,.81-.59,.11-1.14,.03-1.64-.24Zm-4.38-8.15c-.48,.3-1.02,.4-1.62,.32s-1.08-.34-1.43-.77c-.32-.4-.42-.81-.31-1.23,.11-.42,.39-.77,.83-1.07,.48-.32,1.02-.71,1.64-1.17,.62-.46,1.25-.91,1.88-1.37,.63-.46,1.17-.86,1.62-1.21,.44-.38,.97-.56,1.57-.56s1.11,.22,1.52,.65c.41,.4,.6,.83,.57,1.27-.03,.44-.27,.84-.71,1.19-.44,.38-1.02,.81-1.71,1.31-.7,.5-1.39,.98-2.07,1.45-.68,.47-1.28,.87-1.79,1.19Z"/><path class="cls-1" d="M280.14,141.34c-.7,0-1.28-.17-1.74-.5s-.71-.77-.74-1.31c-.03-.62,.17-1.1,.6-1.45,.43-.35,1.05-.52,1.88-.52,1.43,0,2.56-.07,3.4-.22,.84-.15,1.48-.45,1.93-.91,.44-.46,.78-1.17,1-2.14,.25-1.18,.48-2.49,.69-3.91,.21-1.43,.32-2.84,.36-4.24,.09-1.61-.26-2.69-1.05-3.23-.79-.54-2.19-.81-4.19-.81h-22.33c-.19,3.47-.73,6.68-1.62,9.63-.89,2.95-2.35,5.72-4.38,8.33-.35,.46-.86,.76-1.52,.91-.67,.15-1.29,.07-1.86-.22-.54-.3-.86-.69-.95-1.19-.1-.5,.02-.96,.33-1.39,1.49-1.91,2.65-3.89,3.48-5.93s1.41-4.26,1.74-6.66c.33-2.39,.5-5.04,.5-7.95v-5.49c0-1.78,.26-3.17,.79-4.18,.52-1.01,1.43-1.72,2.71-2.12s3.05-.61,5.31-.61h17.05c2.03,0,3.6,.16,4.71,.48,1.11,.32,1.89,.87,2.33,1.65,.44,.78,.67,1.86,.67,3.23s-.22,2.41-.67,3.19c-.44,.78-1.22,1.33-2.33,1.65-1.11,.32-2.68,.48-4.71,.48h-21.43v2.87h22.43c3.49,0,5.98,.55,7.48,1.65,1.49,1.1,2.16,3.05,2,5.85-.09,1.64-.24,3.19-.43,4.64-.19,1.45-.41,2.81-.67,4.08-.35,1.72-.93,3.04-1.74,3.96-.81,.91-1.94,1.54-3.38,1.88-1.44,.34-3.33,.5-5.64,.5Zm-20.05-28.69h21.14c1.4,0,2.31-.14,2.74-.42,.43-.28,.64-.84,.64-1.67s-.21-1.39-.64-1.65c-.43-.27-1.33-.4-2.69-.4h-16.57c-1.27,0-2.24,.09-2.91,.28-.67,.19-1.12,.52-1.36,.99-.24,.47-.36,1.14-.36,2v.89Zm12.28,22.92c-2.22,0-3.92-.16-5.09-.48-1.17-.32-1.97-.88-2.38-1.67-.41-.79-.62-1.92-.62-3.37s.21-2.58,.62-3.39c.41-.81,1.21-1.37,2.38-1.7,1.17-.32,2.87-.48,5.09-.48s3.97,.16,5.14,.48c1.17,.32,1.97,.89,2.38,1.7,.41,.81,.62,1.94,.62,3.39s-.21,2.58-.62,3.37c-.41,.79-1.21,1.35-2.38,1.67-1.18,.32-2.89,.48-5.14,.48Zm0-3.15c1.68,0,2.77-.15,3.26-.44,.49-.3,.74-.94,.74-1.94,0-.67-.09-1.18-.29-1.51s-.57-.57-1.14-.69c-.57-.12-1.43-.18-2.57-.18s-1.95,.06-2.52,.18-.95,.35-1.14,.69-.29,.84-.29,1.51c0,1,.25,1.64,.74,1.94,.49,.3,1.56,.44,3.21,.44Z"/><path class="cls-2" d="M79.8,83.85h0c-1.06-.46-1.53-1.72-1-2.75,2.34-4.54,9.09-15.61,20.05-17.77,6.7-1.32,13.66,.92,20.75,6.66,.97,.78,2.4,.5,3.01-.59,3.14-5.61,9.4-14.33,18.75-16.11,7.5-1.42,15.33,1.9,23.31,9.87,.81,.81,.8,2.12-.03,2.89h0c-.78,.73-2.01,.72-2.77-.04-6.99-7-13.63-9.96-19.75-8.8-11.55,2.19-18.07,18.29-18.13,18.45h0c-.53,1.33-2.24,1.69-3.26,.69h0c-7.44-7.33-14.54-10.4-21.09-9.11-9.19,1.81-15.2,11.72-17.28,15.7-.48,.92-1.59,1.31-2.55,.91Z"/><path class="cls-1" d="M228.06,89.98h0c-1.07-.05-1.91-.95-1.9-2.02,.18-9.85-2.29-16.64-7.34-20.19-9.54-6.71-25.57-.13-25.73-.06h0c-1.32,.55-2.78-.43-2.77-1.86h0c.1-10.42-2.61-17.61-8.05-21.38-7.66-5.29-18.87-2.67-23.15-1.37-1,.3-2.06-.22-2.43-1.19h0c-.42-1.09,.16-2.3,1.27-2.64,4.88-1.5,17.46-4.4,26.59,1.91,5.57,3.85,8.78,10.36,9.58,19.4,.11,1.24,1.32,2.08,2.52,1.75,6.19-1.67,16.74-3.26,24.47,2.16,6.21,4.35,9.25,12.26,9.05,23.51-.02,1.14-.97,2.04-2.1,1.99Z"/></svg>